G04 Layer_Color=32896*
%FSAX25Y25*%
%MOIN*%
G70*
G01*
G75*
%ADD46C,0.02756*%
%ADD51C,0.02362*%
%ADD65C,0.00787*%
%ADD67C,0.00591*%
%ADD112C,0.01575*%
%ADD113R,0.41339X0.13583*%
D46*
X0265711Y0139697D02*
G03*
X0265711Y0139697I-0001419J0000000D01*
G01*
D51*
X0281221D02*
G03*
X0281221Y0139697I-0001181J0000000D01*
G01*
D65*
X0354055Y0183004D02*
Y0186941D01*
X0352874Y0183004D02*
X0354055D01*
X0352874Y0196390D02*
X0354055D01*
Y0192453D02*
Y0196390D01*
X0341850Y0183004D02*
X0342638D01*
X0341850D02*
Y0196390D01*
X0342638D01*
X0271378Y0135760D02*
X0334370D01*
X0271378Y0198752D02*
X0334370Y0198752D01*
X0334173Y0203279D02*
Y0200983D01*
X0333714Y0200524D01*
X0332796D01*
X0332337Y0200983D01*
Y0203279D01*
X0330041Y0200524D02*
Y0203279D01*
X0331418Y0201901D01*
X0329581D01*
X0351037Y0180378D02*
X0351497Y0180838D01*
X0352415D01*
X0352874Y0180378D01*
Y0178542D01*
X0352415Y0178083D01*
X0351497D01*
X0351037Y0178542D01*
X0348742Y0180838D02*
X0349660D01*
X0350119Y0180378D01*
Y0178542D01*
X0349660Y0178083D01*
X0348742D01*
X0348282Y0178542D01*
Y0180378D01*
X0348742Y0180838D01*
X0347364Y0178083D02*
Y0180838D01*
X0345527Y0178083D01*
Y0180838D01*
X0344609Y0180378D02*
X0344150Y0180838D01*
X0343231D01*
X0342772Y0180378D01*
Y0179919D01*
X0343231Y0179460D01*
X0343691D01*
X0343231D01*
X0342772Y0179001D01*
Y0178542D01*
X0343231Y0178083D01*
X0344150D01*
X0344609Y0178542D01*
D67*
X0348478Y0172308D02*
X0348938Y0172767D01*
X0349856D01*
X0350315Y0172308D01*
Y0170471D01*
X0349856Y0170012D01*
X0348938D01*
X0348478Y0170471D01*
Y0171389D01*
X0349397D01*
X0347560Y0170012D02*
Y0172767D01*
X0345723Y0170012D01*
Y0172767D01*
X0344805D02*
Y0170012D01*
X0343427D01*
X0342968Y0170471D01*
Y0172308D01*
X0343427Y0172767D01*
X0344805D01*
X0348675Y0162662D02*
X0349134Y0163121D01*
X0350053D01*
X0350512Y0162662D01*
Y0162203D01*
X0350053Y0161744D01*
X0349134D01*
X0348675Y0161284D01*
Y0160825D01*
X0349134Y0160366D01*
X0350053D01*
X0350512Y0160825D01*
X0345920Y0162662D02*
X0346379Y0163121D01*
X0347298D01*
X0347757Y0162662D01*
Y0160825D01*
X0347298Y0160366D01*
X0346379D01*
X0345920Y0160825D01*
X0345002Y0163121D02*
Y0160366D01*
X0343165D01*
X0348478Y0152623D02*
X0348938Y0153082D01*
X0349856D01*
X0350315Y0152623D01*
Y0152163D01*
X0349856Y0151704D01*
X0348938D01*
X0348478Y0151245D01*
Y0150786D01*
X0348938Y0150327D01*
X0349856D01*
X0350315Y0150786D01*
X0347560Y0153082D02*
Y0150327D01*
X0346182D01*
X0345723Y0150786D01*
Y0152623D01*
X0346182Y0153082D01*
X0347560D01*
X0344805Y0150327D02*
Y0152163D01*
X0343887Y0153082D01*
X0342968Y0152163D01*
Y0150327D01*
Y0151704D01*
X0344805D01*
X0350512Y0142386D02*
X0350053Y0142846D01*
X0349134D01*
X0348675Y0142386D01*
Y0141927D01*
X0349134Y0141468D01*
X0349593D01*
X0349134D01*
X0348675Y0141009D01*
Y0140550D01*
X0349134Y0140091D01*
X0350053D01*
X0350512Y0140550D01*
X0347757Y0142846D02*
Y0141009D01*
X0346838Y0140091D01*
X0345920Y0141009D01*
Y0142846D01*
X0345002Y0142386D02*
X0344543Y0142846D01*
X0343624D01*
X0343165Y0142386D01*
Y0141927D01*
X0343624Y0141468D01*
X0344083D01*
X0343624D01*
X0343165Y0141009D01*
Y0140550D01*
X0343624Y0140091D01*
X0344543D01*
X0345002Y0140550D01*
X0324134Y0116468D02*
Y0114172D01*
X0323675Y0113713D01*
X0322756D01*
X0322297Y0114172D01*
Y0116468D01*
X0319542Y0116008D02*
X0320001Y0116468D01*
X0320920D01*
X0321379Y0116008D01*
Y0115549D01*
X0320920Y0115090D01*
X0320001D01*
X0319542Y0114631D01*
Y0114172D01*
X0320001Y0113713D01*
X0320920D01*
X0321379Y0114172D01*
X0318624Y0116468D02*
Y0113713D01*
X0317246D01*
X0316787Y0114172D01*
Y0114631D01*
X0317246Y0115090D01*
X0318624D01*
X0317246D01*
X0316787Y0115549D01*
Y0116008D01*
X0317246Y0116468D01*
X0318624D01*
X0295329Y0127032D02*
X0295788Y0127491D01*
X0296706D01*
X0297165Y0127032D01*
Y0126573D01*
X0296706Y0126114D01*
X0295788D01*
X0295329Y0125655D01*
Y0125195D01*
X0295788Y0124736D01*
X0296706D01*
X0297165Y0125195D01*
X0293033Y0127491D02*
X0293951D01*
X0294410Y0127032D01*
Y0125195D01*
X0293951Y0124736D01*
X0293033D01*
X0292574Y0125195D01*
Y0127032D01*
X0293033Y0127491D01*
X0291655D02*
Y0124736D01*
X0289819D01*
X0288900D02*
Y0126573D01*
X0287982Y0127491D01*
X0287064Y0126573D01*
Y0124736D01*
Y0126114D01*
X0288900D01*
X0286145Y0124736D02*
Y0127491D01*
X0284768D01*
X0284309Y0127032D01*
Y0126114D01*
X0284768Y0125655D01*
X0286145D01*
X0285227D02*
X0284309Y0124736D01*
X0272165Y0127294D02*
Y0124539D01*
X0270788D01*
X0270329Y0124999D01*
Y0125458D01*
X0270788Y0125917D01*
X0272165D01*
X0270788D01*
X0270329Y0126376D01*
Y0126835D01*
X0270788Y0127294D01*
X0272165D01*
X0269410Y0124539D02*
Y0126376D01*
X0268492Y0127294D01*
X0267574Y0126376D01*
Y0124539D01*
Y0125917D01*
X0269410D01*
X0266655Y0127294D02*
X0264819D01*
X0265737D01*
Y0124539D01*
X0287126Y0122767D02*
X0285289D01*
X0296181D02*
X0294344D01*
X0295263Y0123686D02*
Y0121849D01*
X0264685Y0122570D02*
X0262848D01*
X0274331D02*
X0272494D01*
X0273412Y0123489D02*
Y0121652D01*
X0253662Y0127491D02*
X0254580D01*
X0255039Y0127032D01*
Y0125195D01*
X0254580Y0124736D01*
X0253662D01*
X0253203Y0125195D01*
Y0127032D01*
X0253662Y0127491D01*
X0252284D02*
Y0125195D01*
X0251825Y0124736D01*
X0250907D01*
X0250448Y0125195D01*
Y0127491D01*
X0249529D02*
X0247693D01*
X0248611D01*
Y0124736D01*
X0245197Y0127032D02*
X0244738Y0127491D01*
X0243819D01*
X0243360Y0127032D01*
Y0126573D01*
X0243819Y0126114D01*
X0244279D01*
X0243819D01*
X0243360Y0125655D01*
Y0125195D01*
X0243819Y0124736D01*
X0244738D01*
X0245197Y0125195D01*
X0242442Y0127491D02*
Y0125655D01*
X0241524Y0124736D01*
X0240605Y0125655D01*
Y0127491D01*
X0239687Y0127032D02*
X0239228Y0127491D01*
X0238309D01*
X0237850Y0127032D01*
Y0126573D01*
X0238309Y0126114D01*
X0238769D01*
X0238309D01*
X0237850Y0125655D01*
Y0125195D01*
X0238309Y0124736D01*
X0239228D01*
X0239687Y0125195D01*
X0234173Y0127491D02*
X0232337D01*
X0233255D01*
Y0124736D01*
X0231418Y0127491D02*
X0229581Y0124736D01*
Y0127491D02*
X0231418Y0124736D01*
X0223740Y0124539D02*
Y0127294D01*
X0222363D01*
X0221903Y0126835D01*
Y0125917D01*
X0222363Y0125458D01*
X0223740D01*
X0222822D02*
X0221903Y0124539D01*
X0220985Y0127294D02*
X0219148Y0124539D01*
Y0127294D02*
X0220985Y0124539D01*
X0213636Y0127032D02*
X0214095Y0127491D01*
X0215013D01*
X0215472Y0127032D01*
Y0125195D01*
X0215013Y0124736D01*
X0214095D01*
X0213636Y0125195D01*
Y0126114D01*
X0214554D01*
X0212717Y0124736D02*
Y0127491D01*
X0210881Y0124736D01*
Y0127491D01*
X0209962D02*
Y0124736D01*
X0208585D01*
X0208126Y0125195D01*
Y0127032D01*
X0208585Y0127491D01*
X0209962D01*
X0205433Y0126114D02*
X0203596D01*
X0204515Y0127032D02*
Y0125195D01*
X0200841Y0127491D02*
X0202678D01*
Y0126114D01*
X0201760Y0126573D01*
X0201301D01*
X0200841Y0126114D01*
Y0125195D01*
X0201301Y0124736D01*
X0202219D01*
X0202678Y0125195D01*
X0199923Y0127491D02*
Y0125655D01*
X0199005Y0124736D01*
X0198086Y0125655D01*
Y0127491D01*
X0195000Y0127688D02*
X0194082D01*
X0194541D01*
Y0124933D01*
X0195000D01*
X0194082D01*
X0191327Y0127688D02*
X0192245D01*
X0192704Y0127229D01*
Y0125392D01*
X0192245Y0124933D01*
X0191327D01*
X0190867Y0125392D01*
Y0127229D01*
X0191327Y0127688D01*
X0188112D02*
X0189031Y0127229D01*
X0189949Y0126311D01*
Y0125392D01*
X0189490Y0124933D01*
X0188572D01*
X0188112Y0125392D01*
Y0125851D01*
X0188572Y0126311D01*
X0189949D01*
X0185354Y0127688D02*
X0184436D01*
X0184895D01*
Y0124933D01*
X0185354D01*
X0184436D01*
X0181681Y0127688D02*
X0182599D01*
X0183059Y0127229D01*
Y0125392D01*
X0182599Y0124933D01*
X0181681D01*
X0181222Y0125392D01*
Y0127229D01*
X0181681Y0127688D01*
X0178467D02*
X0180304D01*
Y0126311D01*
X0179385Y0126770D01*
X0178926D01*
X0178467Y0126311D01*
Y0125392D01*
X0178926Y0124933D01*
X0179844D01*
X0180304Y0125392D01*
X0174856Y0127229D02*
X0175315Y0127688D01*
X0176234D01*
X0176693Y0127229D01*
Y0126770D01*
X0176234Y0126311D01*
X0175315D01*
X0174856Y0125851D01*
Y0125392D01*
X0175315Y0124933D01*
X0176234D01*
X0176693Y0125392D01*
X0173938Y0127688D02*
Y0124933D01*
X0173020Y0125851D01*
X0172101Y0124933D01*
Y0127688D01*
X0171183D02*
Y0124933D01*
X0169805D01*
X0169346Y0125392D01*
Y0127229D01*
X0169805Y0127688D01*
X0171183D01*
X0168428D02*
X0167509D01*
X0167969D01*
Y0124933D01*
X0168428D01*
X0167509D01*
X0164754Y0127688D02*
X0165673D01*
X0166132Y0127229D01*
Y0125392D01*
X0165673Y0124933D01*
X0164754D01*
X0164295Y0125392D01*
Y0127229D01*
X0164754Y0127688D01*
X0161077Y0127032D02*
X0161536Y0127491D01*
X0162454D01*
X0162913Y0127032D01*
Y0126573D01*
X0162454Y0126114D01*
X0161536D01*
X0161077Y0125655D01*
Y0125195D01*
X0161536Y0124736D01*
X0162454D01*
X0162913Y0125195D01*
X0160158Y0127491D02*
Y0124736D01*
X0159240Y0125655D01*
X0158322Y0124736D01*
Y0127491D01*
X0155567Y0127032D02*
X0156026Y0127491D01*
X0156944D01*
X0157403Y0127032D01*
Y0125195D01*
X0156944Y0124736D01*
X0156026D01*
X0155567Y0125195D01*
X0154648Y0127491D02*
Y0124736D01*
X0152812D01*
X0151893Y0127491D02*
Y0124736D01*
Y0125655D01*
X0150057Y0127491D01*
X0151434Y0126114D01*
X0150057Y0124736D01*
D112*
X0222560Y0137924D02*
X0223544Y0138908D01*
X0225512D01*
X0226496Y0137924D01*
Y0133988D01*
X0225512Y0133004D01*
X0223544D01*
X0222560Y0133988D01*
X0216657Y0138908D02*
X0220592D01*
Y0133004D01*
X0216657D01*
X0220592Y0135956D02*
X0218625D01*
X0214689Y0133004D02*
Y0138908D01*
X0211737D01*
X0210753Y0137924D01*
Y0135956D01*
X0211737Y0134972D01*
X0214689D01*
X0212721D02*
X0210753Y0133004D01*
X0208785D02*
Y0138908D01*
X0204850Y0133004D01*
Y0138908D01*
X0194026D02*
X0195994D01*
X0196978Y0137924D01*
Y0133988D01*
X0195994Y0133004D01*
X0194026D01*
X0193042Y0133988D01*
Y0137924D01*
X0194026Y0138908D01*
X0191075D02*
Y0133004D01*
Y0135956D01*
X0187139D01*
Y0138908D01*
Y0133004D01*
X0185171Y0138908D02*
Y0133004D01*
X0181235D01*
X0225905Y0170799D02*
X0221970D01*
X0223938D01*
Y0178671D01*
X0225905D01*
X0216066D02*
Y0170799D01*
Y0174735D01*
X0214098Y0176703D01*
X0212130Y0178671D01*
X0210163D01*
X0204259Y0170799D02*
Y0178671D01*
X0198355D01*
X0196388Y0176703D01*
Y0170799D01*
X0190484Y0178671D02*
X0186548D01*
X0184580Y0176703D01*
Y0170799D01*
X0190484D01*
X0192452Y0172767D01*
X0190484Y0174735D01*
X0184580D01*
X0180645Y0170799D02*
X0174741D01*
X0172773Y0172767D01*
X0174741Y0174735D01*
X0178677D01*
X0180645Y0176703D01*
X0178677Y0178671D01*
X0172773D01*
X0168837Y0170799D02*
Y0172767D01*
X0166869D01*
Y0170799D01*
X0168837D01*
X0153094D02*
X0157030D01*
X0158998Y0172767D01*
Y0176703D01*
X0157030Y0178671D01*
X0153094D01*
X0151127Y0176703D01*
Y0174735D01*
X0158998D01*
X0147191Y0178671D02*
Y0172767D01*
X0145223Y0170799D01*
X0139319D01*
Y0178671D01*
X0226299Y0143437D02*
Y0151309D01*
X0221052Y0143437D01*
Y0151309D01*
X0217116Y0143437D02*
X0214492D01*
X0213180Y0144749D01*
Y0147373D01*
X0214492Y0148685D01*
X0217116D01*
X0218428Y0147373D01*
Y0144749D01*
X0217116Y0143437D01*
X0210556D02*
Y0144749D01*
X0209244D01*
Y0143437D01*
X0210556D01*
X0226693Y0164433D02*
X0224069Y0159185D01*
X0221445Y0164433D01*
X0218821Y0165745D02*
X0217510Y0167057D01*
X0214886D01*
X0213574Y0165745D01*
Y0160497D01*
X0214886Y0159185D01*
X0217510D01*
X0218821Y0160497D01*
Y0165745D01*
X0210950Y0159185D02*
Y0160497D01*
X0209638D01*
Y0159185D01*
X0210950D01*
X0204390D02*
X0201767D01*
X0203079D01*
Y0167057D01*
X0204390Y0165745D01*
X0225512Y0185760D02*
Y0197567D01*
X0219608D01*
X0217640Y0195599D01*
Y0191663D01*
X0219608Y0189696D01*
X0225512D01*
X0213705Y0185760D02*
X0209769D01*
X0211737D01*
Y0193631D01*
X0213705D01*
X0203865Y0185760D02*
Y0197567D01*
X0197962D01*
X0195994Y0195599D01*
Y0191663D01*
X0197962Y0189696D01*
X0203865D01*
X0199929D02*
X0195994Y0185760D01*
X0192058D02*
Y0193631D01*
X0188122Y0197567D01*
X0184187Y0193631D01*
Y0185760D01*
Y0191663D01*
X0192058D01*
X0160572Y0195599D02*
X0162540Y0197567D01*
X0166476D01*
X0168444Y0195599D01*
Y0193631D01*
X0166476Y0191663D01*
X0162540D01*
X0160572Y0189696D01*
Y0187728D01*
X0162540Y0185760D01*
X0166476D01*
X0168444Y0187728D01*
X0156637Y0185760D02*
Y0193631D01*
X0154669D01*
X0152701Y0191663D01*
Y0185760D01*
Y0191663D01*
X0150733Y0193631D01*
X0148765Y0191663D01*
Y0185760D01*
X0142861Y0193631D02*
X0138926D01*
X0136958Y0191663D01*
Y0185760D01*
X0142861D01*
X0144829Y0187728D01*
X0142861Y0189696D01*
X0136958D01*
X0133022Y0193631D02*
Y0185760D01*
Y0189696D01*
X0131054Y0191663D01*
X0129086Y0193631D01*
X0127119D01*
X0119247Y0195599D02*
Y0193631D01*
X0121215D01*
X0117279D01*
X0119247D01*
Y0187728D01*
X0117279Y0185760D01*
D113*
X0185551Y0149638D02*
D03*
M02*
