G04 Layer_Color=65535*
%FSAX25Y25*%
%MOIN*%
G70*
G01*
G75*
%ADD51C,0.02362*%
%ADD63C,0.00984*%
%ADD64C,0.00394*%
%ADD65C,0.00787*%
%ADD66C,0.00315*%
%ADD67C,0.00591*%
D51*
X0195590Y0187138D02*
G03*
X0195590Y0187138I-0001181J0000000D01*
G01*
D63*
X0225118Y0139500D02*
G03*
X0225118Y0139500I-0000492J0000000D01*
G01*
X0252527Y0150721D02*
G03*
X0252527Y0150721I-0000440J0000000D01*
G01*
X0199035Y0159776D02*
G03*
X0199035Y0159776I-0000492J0000000D01*
G01*
X0199724Y0195405D02*
G03*
X0199724Y0195405I-0000492J0000000D01*
G01*
X0238280Y0164736D02*
G03*
X0238280Y0164736I-0000492J0000000D01*
G01*
X0275315Y0172571D02*
G03*
X0275315Y0172571I-0000492J0000000D01*
G01*
X0298248Y0146193D02*
G03*
X0298248Y0146193I-0000492J0000000D01*
G01*
X0323248Y0133398D02*
G03*
X0323248Y0133398I-0000492J0000000D01*
G01*
X0331319Y0164598D02*
G03*
X0331319Y0164598I-0000492J0000000D01*
G01*
X0290642Y0164342D02*
G03*
X0290642Y0164342I-0000492J0000000D01*
G01*
X0293130Y0163319D02*
G03*
X0293130Y0163319I-0000492J0000000D01*
G01*
D64*
X0235748Y0178870D02*
G03*
X0235748Y0178870I-0000197J0000000D01*
G01*
X0275512Y0157905D02*
G03*
X0275512Y0157905I-0000197J0000000D01*
G01*
X0325512Y0141567D02*
G03*
X0325512Y0141567I-0000197J0000000D01*
G01*
X0107598Y0142453D02*
Y0162138D01*
Y0181823D01*
X0178464D01*
Y0142453D02*
Y0181823D01*
X0107598Y0142453D02*
X0178464D01*
X0287257Y0110825D02*
X0286929Y0111153D01*
X0286273D01*
X0285945Y0110825D01*
Y0110497D01*
X0286273Y0110169D01*
X0286929D01*
X0287257Y0109841D01*
Y0109513D01*
X0286929Y0109185D01*
X0286273D01*
X0285945Y0109513D01*
X0288897Y0111153D02*
X0288241D01*
X0287913Y0110825D01*
Y0109513D01*
X0288241Y0109185D01*
X0288897D01*
X0289225Y0109513D01*
Y0110825D01*
X0288897Y0111153D01*
X0289881D02*
Y0109185D01*
X0291193D01*
X0291848D02*
Y0110497D01*
X0292504Y0111153D01*
X0293160Y0110497D01*
Y0109185D01*
Y0110169D01*
X0291848D01*
X0293816Y0109185D02*
Y0111153D01*
X0294800D01*
X0295128Y0110825D01*
Y0110169D01*
X0294800Y0109841D01*
X0293816D01*
X0294472D02*
X0295128Y0109185D01*
X0266063Y0111153D02*
Y0109185D01*
X0267047D01*
X0267375Y0109513D01*
Y0109841D01*
X0267047Y0110169D01*
X0266063D01*
X0267047D01*
X0267375Y0110497D01*
Y0110825D01*
X0267047Y0111153D01*
X0266063D01*
X0268031Y0109185D02*
Y0110497D01*
X0268687Y0111153D01*
X0269343Y0110497D01*
Y0109185D01*
Y0110169D01*
X0268031D01*
X0269999Y0111153D02*
X0271311D01*
X0270655D01*
Y0109185D01*
X0250118Y0111153D02*
X0249462D01*
X0249134Y0110825D01*
Y0109513D01*
X0249462Y0109185D01*
X0250118D01*
X0250446Y0109513D01*
Y0110825D01*
X0250118Y0111153D01*
X0251102D02*
Y0109513D01*
X0251430Y0109185D01*
X0252086D01*
X0252414Y0109513D01*
Y0111153D01*
X0253070D02*
X0254381D01*
X0253726D01*
Y0109185D01*
X0239094Y0110825D02*
X0239422Y0111153D01*
X0240078D01*
X0240406Y0110825D01*
Y0110497D01*
X0240078Y0110169D01*
X0239751D01*
X0240078D01*
X0240406Y0109841D01*
Y0109513D01*
X0240078Y0109185D01*
X0239422D01*
X0239094Y0109513D01*
X0241062Y0111153D02*
Y0109841D01*
X0241718Y0109185D01*
X0242374Y0109841D01*
Y0111153D01*
X0243030Y0110825D02*
X0243358Y0111153D01*
X0244014D01*
X0244342Y0110825D01*
Y0110497D01*
X0244014Y0110169D01*
X0243686D01*
X0244014D01*
X0244342Y0109841D01*
Y0109513D01*
X0244014Y0109185D01*
X0243358D01*
X0243030Y0109513D01*
X0230236Y0111153D02*
X0231548D01*
X0230892D01*
Y0109185D01*
X0232204Y0111153D02*
X0233516Y0109185D01*
Y0111153D02*
X0232204Y0109185D01*
X0220197D02*
Y0111153D01*
X0221181D01*
X0221509Y0110825D01*
Y0110169D01*
X0221181Y0109841D01*
X0220197D01*
X0220853D02*
X0221509Y0109185D01*
X0222165Y0111153D02*
X0223477Y0109185D01*
Y0111153D02*
X0222165Y0109185D01*
X0210485Y0110825D02*
X0210157Y0111153D01*
X0209501D01*
X0209173Y0110825D01*
Y0109513D01*
X0209501Y0109185D01*
X0210157D01*
X0210485Y0109513D01*
Y0110169D01*
X0209829D01*
X0211141Y0109185D02*
Y0111153D01*
X0212453Y0109185D01*
Y0111153D01*
X0213109D02*
Y0109185D01*
X0214093D01*
X0214421Y0109513D01*
Y0110825D01*
X0214093Y0111153D01*
X0213109D01*
X0198740Y0110169D02*
X0200052D01*
X0199396Y0110825D02*
Y0109513D01*
X0202020Y0111153D02*
X0200708D01*
Y0110169D01*
X0201364Y0110497D01*
X0201692D01*
X0202020Y0110169D01*
Y0109513D01*
X0201692Y0109185D01*
X0201036D01*
X0200708Y0109513D01*
X0202676Y0111153D02*
Y0109841D01*
X0203332Y0109185D01*
X0203988Y0109841D01*
Y0111153D01*
X0189488D02*
X0190144D01*
X0189816D01*
Y0109185D01*
X0189488D01*
X0190144D01*
X0192112Y0111153D02*
X0191456D01*
X0191128Y0110825D01*
Y0109513D01*
X0191456Y0109185D01*
X0192112D01*
X0192440Y0109513D01*
Y0110825D01*
X0192112Y0111153D01*
X0194408D02*
X0193752Y0110825D01*
X0193096Y0110169D01*
Y0109513D01*
X0193424Y0109185D01*
X0194080D01*
X0194408Y0109513D01*
Y0109841D01*
X0194080Y0110169D01*
X0193096D01*
X0179449Y0111153D02*
X0180105D01*
X0179777D01*
Y0109185D01*
X0179449D01*
X0180105D01*
X0182073Y0111153D02*
X0181417D01*
X0181089Y0110825D01*
Y0109513D01*
X0181417Y0109185D01*
X0182073D01*
X0182401Y0109513D01*
Y0110825D01*
X0182073Y0111153D01*
X0184369D02*
X0183057D01*
Y0110169D01*
X0183712Y0110497D01*
X0184040D01*
X0184369Y0110169D01*
Y0109513D01*
X0184040Y0109185D01*
X0183385D01*
X0183057Y0109513D01*
X0168950Y0110825D02*
X0168622Y0111153D01*
X0167966D01*
X0167638Y0110825D01*
Y0110497D01*
X0167966Y0110169D01*
X0168622D01*
X0168950Y0109841D01*
Y0109513D01*
X0168622Y0109185D01*
X0167966D01*
X0167638Y0109513D01*
X0169606Y0111153D02*
Y0109185D01*
X0170262Y0109841D01*
X0170918Y0109185D01*
Y0111153D01*
X0171573D02*
Y0109185D01*
X0172557D01*
X0172885Y0109513D01*
Y0110825D01*
X0172557Y0111153D01*
X0171573D01*
X0173541D02*
X0174197D01*
X0173869D01*
Y0109185D01*
X0173541D01*
X0174197D01*
X0176165Y0111153D02*
X0175509D01*
X0175181Y0110825D01*
Y0109513D01*
X0175509Y0109185D01*
X0176165D01*
X0176493Y0109513D01*
Y0110825D01*
X0176165Y0111153D01*
X0157926Y0110825D02*
X0157598Y0111153D01*
X0156942D01*
X0156614Y0110825D01*
Y0110497D01*
X0156942Y0110169D01*
X0157598D01*
X0157926Y0109841D01*
Y0109513D01*
X0157598Y0109185D01*
X0156942D01*
X0156614Y0109513D01*
X0158582Y0111153D02*
Y0109185D01*
X0159238Y0109841D01*
X0159894Y0109185D01*
Y0111153D01*
X0161862Y0110825D02*
X0161534Y0111153D01*
X0160878D01*
X0160550Y0110825D01*
Y0109513D01*
X0160878Y0109185D01*
X0161534D01*
X0161862Y0109513D01*
X0162518Y0111153D02*
Y0109185D01*
X0163830D01*
X0164486Y0111153D02*
Y0109185D01*
Y0109841D01*
X0165797Y0111153D01*
X0164814Y0110169D01*
X0165797Y0109185D01*
D65*
X0135599Y0203095D02*
X0335598D01*
X0135599Y0223095D02*
X0335598D01*
X0135599Y0203095D02*
Y0223095D01*
X0335598Y0203095D02*
Y0223095D01*
X0162472Y0189709D02*
X0168473D01*
X0162472D02*
Y0200709D01*
X0168473D01*
Y0189709D02*
Y0200709D01*
X0155780Y0189709D02*
X0161779D01*
X0155780D02*
Y0200709D01*
X0161779D01*
Y0189709D02*
Y0200709D01*
X0149087Y0189709D02*
X0155087D01*
X0149087D02*
Y0200709D01*
X0155087D01*
Y0189709D02*
Y0200709D01*
X0142394D02*
X0148394D01*
Y0189709D02*
Y0200709D01*
X0142394Y0189709D02*
X0148394D01*
X0142394D02*
Y0200709D01*
X0135701D02*
X0141701D01*
Y0189709D02*
Y0200709D01*
X0135701Y0189709D02*
X0141701D01*
X0135701D02*
Y0200709D01*
X0185441Y0127248D02*
Y0133248D01*
X0174441Y0127248D02*
X0185441D01*
X0174441D02*
Y0133248D01*
X0185441D01*
X0174441Y0133744D02*
Y0139744D01*
X0185441D01*
Y0133744D02*
Y0139744D01*
X0174441Y0133744D02*
X0185441D01*
X0156678Y0121862D02*
X0176678D01*
X0156678Y0111862D02*
Y0121862D01*
Y0111862D02*
X0176678D01*
Y0121862D01*
X0143866Y0111240D02*
Y0124240D01*
X0137866D02*
X0143866D01*
X0137866Y0111240D02*
Y0124240D01*
Y0112240D02*
X0143866D01*
X0137866Y0111240D02*
X0143866D01*
X0151150D02*
Y0124240D01*
X0145150Y0124240D02*
X0151150Y0124240D01*
X0145150Y0124240D02*
X0145150Y0111240D01*
X0145150Y0112240D02*
X0151150D01*
X0145150Y0111240D02*
X0151150D01*
X0137876Y0136059D02*
X0143876D01*
Y0125059D02*
Y0136059D01*
X0137876Y0125059D02*
X0143876D01*
X0137876D02*
X0137876Y0136059D01*
X0145159D02*
X0151159D01*
Y0125059D02*
Y0136059D01*
X0145159Y0125059D02*
X0151159D01*
X0145159D02*
Y0136059D01*
X0176693Y0111862D02*
Y0121862D01*
X0256693D01*
Y0111862D02*
Y0121862D01*
X0176693Y0111862D02*
X0256693D01*
X0288295Y0187484D02*
Y0193484D01*
X0277295Y0187484D02*
X0288295D01*
X0277295D02*
Y0193484D01*
X0288295D01*
Y0194177D02*
Y0200177D01*
X0277295Y0194177D02*
X0288295D01*
X0277295D02*
Y0200177D01*
X0288295D01*
X0277045Y0181041D02*
Y0186541D01*
Y0181041D02*
X0288545D01*
Y0186541D01*
X0277045D02*
X0288545D01*
X0253268Y0139697D02*
X0277677D01*
X0253268Y0123949D02*
Y0139697D01*
Y0123949D02*
X0277677D01*
Y0139697D01*
X0219953Y0140496D02*
X0225953D01*
X0219953D02*
Y0151496D01*
X0225953D01*
Y0140496D02*
Y0151496D01*
X0226902Y0140240D02*
Y0146240D01*
X0237902D01*
Y0140240D02*
Y0146240D01*
X0226902Y0140240D02*
X0237902D01*
X0212866Y0135158D02*
X0218866D01*
Y0124158D02*
Y0135158D01*
X0212866Y0124158D02*
X0218866D01*
X0212866D02*
Y0135158D01*
X0232008Y0126114D02*
Y0138319D01*
X0228071Y0126114D02*
Y0138319D01*
Y0126114D02*
X0232008D01*
X0228071Y0138319D02*
X0232008D01*
X0219791Y0162681D02*
Y0168681D01*
X0208791Y0162681D02*
X0219791D01*
X0208791D02*
Y0168681D01*
X0219791Y0168681D01*
X0199087Y0172362D02*
X0205087D01*
X0205087Y0161362D02*
X0205087Y0172362D01*
X0199087Y0161362D02*
X0205087D01*
X0199087D02*
Y0172362D01*
X0212866Y0146772D02*
X0218866D01*
Y0135772D02*
Y0146772D01*
X0212866Y0135772D02*
X0218866D01*
X0212866D02*
Y0146772D01*
X0251693Y0130642D02*
Y0148752D01*
X0241063Y0130642D02*
Y0148752D01*
X0221071Y0158531D02*
Y0166532D01*
X0235071D01*
Y0158531D02*
Y0166532D01*
X0221071Y0158531D02*
X0235071D01*
X0227677Y0187689D02*
X0230039D01*
X0227677Y0181468D02*
X0230039D01*
X0235551Y0175898D02*
X0235551Y0177295D01*
X0235551Y0169027D02*
X0235551Y0170425D01*
X0222165Y0175898D02*
Y0177295D01*
Y0169028D02*
Y0170425D01*
X0205780Y0140669D02*
X0211779D01*
X0211779Y0124169D01*
X0205780Y0129669D02*
Y0140669D01*
Y0123949D02*
X0211779D01*
X0205780D02*
Y0129669D01*
X0211779Y0123949D02*
Y0125130D01*
X0318524Y0099047D02*
X0320098Y0100622D01*
X0321673Y0099047D01*
X0320098Y0095898D02*
Y0100622D01*
X0306319D02*
Y0102591D01*
X0333878Y0100622D02*
Y0102591D01*
X0311831Y0126409D02*
X0313012D01*
X0335453Y0119520D02*
Y0120307D01*
X0304350Y0106331D02*
X0335846D01*
X0304350Y0109087D02*
X0335846D01*
Y0103969D02*
Y0110071D01*
X0304350Y0103969D02*
Y0110071D01*
Y0103969D02*
X0335846D01*
X0304744Y0119520D02*
Y0120307D01*
X0327185Y0126409D02*
X0328366D01*
X0298839Y0095898D02*
Y0100622D01*
X0341358D01*
Y0095898D02*
Y0100622D01*
X0201496Y0158004D02*
X0205827D01*
X0205827Y0155445D01*
X0201496Y0145799D02*
X0205827D01*
X0205827Y0148358D01*
X0185957Y0166618D02*
Y0172618D01*
X0196957D01*
Y0166618D02*
Y0172618D01*
X0185957Y0166618D02*
X0196957D01*
X0185957Y0165925D02*
X0185957Y0159925D01*
X0185957Y0165925D02*
X0196957D01*
Y0159925D02*
Y0165925D01*
X0185957Y0159925D02*
X0196957Y0159925D01*
X0183988Y0158248D02*
X0183988Y0152248D01*
X0183988Y0158248D02*
X0194988D01*
X0194988Y0152248D02*
X0194988Y0158248D01*
X0183988Y0152248D02*
X0194988D01*
X0209173Y0182484D02*
X0209173Y0198484D01*
X0200342D02*
X0209173D01*
X0200342Y0182484D02*
Y0198484D01*
Y0182484D02*
X0209173Y0182484D01*
X0186142Y0182020D02*
X0186142Y0191075D01*
X0198346Y0182020D02*
X0198346Y0191075D01*
X0186142Y0182020D02*
X0198346D01*
X0186142Y0191075D02*
X0198346D01*
X0208791Y0169768D02*
Y0175768D01*
X0219791D01*
Y0169768D02*
Y0175768D01*
X0208791Y0169768D02*
X0219791Y0169768D01*
X0212653Y0176791D02*
X0220654D01*
X0212653D02*
X0212654Y0190791D01*
X0220654Y0190791D01*
Y0176791D02*
Y0190791D01*
X0258347Y0111862D02*
Y0121862D01*
X0278346D01*
Y0111862D02*
Y0121862D01*
X0258347Y0111862D02*
X0278346D01*
X0300157D02*
Y0121862D01*
X0280157Y0111862D02*
X0300157D01*
X0280157D02*
Y0121862D01*
X0300157D01*
X0273752Y0146146D02*
Y0152146D01*
X0284752D01*
Y0146146D02*
Y0152146D01*
X0273752Y0146146D02*
X0284752D01*
X0270110Y0142783D02*
Y0150784D01*
X0256110Y0142783D02*
X0270110D01*
X0256110D02*
Y0150784D01*
X0270110D01*
Y0151445D02*
Y0159445D01*
X0256110Y0151445D02*
X0270110D01*
X0256110D02*
Y0159445D01*
X0270110D01*
X0270110Y0159713D02*
Y0167713D01*
X0256110Y0159713D02*
X0270110D01*
X0256110D02*
Y0167713D01*
X0270110D01*
X0237520Y0166469D02*
Y0183004D01*
X0254055Y0166469D02*
Y0183004D01*
X0237520Y0166469D02*
X0239488D01*
X0237520Y0183004D02*
X0239488D01*
X0252087Y0166469D02*
X0254055D01*
X0252087Y0183004D02*
X0254055D01*
X0271575Y0185366D02*
X0272264D01*
Y0183693D02*
Y0185366D01*
X0260846D02*
X0261535D01*
X0260846Y0183693D02*
Y0185366D01*
Y0171980D02*
Y0173653D01*
Y0171980D02*
X0261535D01*
X0271575D02*
X0272264D01*
Y0173653D01*
X0288295Y0174098D02*
Y0180098D01*
X0277295Y0174098D02*
X0288295D01*
X0277295D02*
Y0180098D01*
X0288295D01*
Y0166224D02*
Y0172224D01*
X0277295Y0166224D02*
X0288295D01*
X0277295D02*
Y0172224D01*
X0288295D01*
X0284764Y0153083D02*
Y0153772D01*
X0277677Y0153083D02*
Y0153772D01*
X0284764Y0157905D02*
Y0158595D01*
X0277677Y0157905D02*
Y0158595D01*
Y0153083D02*
X0284764D01*
X0277677Y0158595D02*
X0284764D01*
X0297953Y0126311D02*
Y0143634D01*
X0287323Y0126311D02*
Y0143634D01*
X0297165Y0143634D02*
X0297953Y0143634D01*
X0297165Y0126311D02*
X0297953Y0126311D01*
X0287323Y0143634D02*
X0288110Y0143634D01*
X0287323Y0126311D02*
X0288110Y0126311D01*
X0302874Y0133201D02*
X0320197D01*
X0302874Y0143831D02*
X0320197D01*
Y0133201D02*
Y0133988D01*
X0302874Y0133201D02*
Y0133988D01*
X0320197Y0143043D02*
Y0143831D01*
X0302874Y0143043D02*
Y0143831D01*
X0343575Y0146772D02*
X0349575D01*
Y0135772D02*
Y0146772D01*
X0343575Y0135772D02*
X0349575D01*
X0343575D02*
Y0146772D01*
X0340669Y0141665D02*
Y0142453D01*
X0326496D02*
X0340669D01*
X0326496Y0141665D02*
Y0142453D01*
Y0134579D02*
Y0135366D01*
Y0134579D02*
X0340669D01*
Y0135366D01*
X0306423Y0152451D02*
X0311923D01*
Y0163951D01*
X0306423D02*
X0311923D01*
X0306423Y0152451D02*
Y0163951D01*
X0314691Y0148907D02*
X0320191D01*
Y0160407D01*
X0314691D02*
X0320191D01*
X0314691Y0148907D02*
Y0160407D01*
X0321315Y0162445D02*
X0329315D01*
Y0148445D02*
Y0162445D01*
X0321315Y0148445D02*
X0329315D01*
X0321315D02*
Y0162445D01*
X0335244Y0154807D02*
X0348244D01*
Y0160807D01*
X0335244D02*
X0348244D01*
X0336244Y0154807D02*
Y0160807D01*
X0335244Y0154807D02*
Y0160807D01*
X0337138Y0162287D02*
Y0168287D01*
X0348138D01*
Y0162287D02*
Y0168287D01*
X0337138Y0162287D02*
X0348138D01*
Y0168980D02*
Y0174980D01*
X0337138Y0168980D02*
X0348138D01*
X0337138D02*
Y0174980D01*
X0348138D01*
X0334520Y0176323D02*
X0340520D01*
X0334520D02*
Y0187323D01*
X0340520D01*
Y0176323D02*
Y0187323D01*
X0327579Y0183890D02*
X0329350D01*
Y0182118D02*
Y0183890D01*
X0311831D02*
X0313602D01*
X0311831Y0182118D02*
Y0183890D01*
Y0166370D02*
Y0168142D01*
Y0166370D02*
X0313602D01*
X0327579D02*
X0329350D01*
Y0168142D01*
X0351417Y0176508D02*
X0361417D01*
Y0136508D02*
Y0176508D01*
X0351417Y0136508D02*
Y0176508D01*
Y0136508D02*
X0361417D01*
X0363110Y0184185D02*
Y0195209D01*
X0356024Y0195209D02*
X0363110Y0195209D01*
X0356024Y0184185D02*
X0363110D01*
X0354055Y0192453D02*
Y0196390D01*
X0352874Y0196390D02*
X0354055Y0196390D01*
X0352874Y0183004D02*
X0354055D01*
Y0186941D01*
X0341850Y0196390D02*
X0342638D01*
X0341850Y0183004D02*
Y0196390D01*
Y0183004D02*
X0342638D01*
X0334520Y0188528D02*
X0340520D01*
X0334520D02*
Y0199528D01*
X0340520D01*
Y0188528D02*
Y0199528D01*
X0240606Y0186634D02*
X0248606D01*
X0240606D02*
Y0200634D01*
X0248606D01*
Y0186634D02*
Y0200634D01*
X0249268Y0186634D02*
X0257268D01*
X0249268D02*
Y0200634D01*
X0257268D01*
Y0186634D02*
Y0200634D01*
X0272472Y0192783D02*
Y0200783D01*
X0258472Y0192783D02*
X0272472D01*
X0258472D02*
Y0200783D01*
X0272472D01*
X0277295Y0159531D02*
Y0165532D01*
X0288295D01*
Y0159531D02*
Y0165532D01*
X0277295Y0159531D02*
X0288295D01*
X0290213Y0186240D02*
X0298213D01*
X0290213D02*
Y0200240D01*
X0298213D01*
Y0186240D02*
Y0200240D01*
X0299268Y0186240D02*
X0307268D01*
X0299268D02*
Y0200240D01*
X0307268D01*
Y0186240D02*
Y0200240D01*
X0289882Y0166075D02*
Y0182610D01*
X0306417Y0166075D02*
Y0182610D01*
X0289882Y0166075D02*
X0291850D01*
X0289882Y0182610D02*
X0291850D01*
X0304449Y0166075D02*
X0306417D01*
X0304449Y0182610D02*
X0306417D01*
X0295591Y0161547D02*
X0299921D01*
Y0158988D02*
Y0161547D01*
X0295591Y0149343D02*
X0299921D01*
Y0151902D01*
X0308142Y0188528D02*
X0314142D01*
X0308142D02*
Y0199528D01*
X0314142D01*
Y0188528D02*
Y0199528D01*
X0314835Y0188528D02*
X0320835D01*
X0314835D02*
Y0199528D01*
X0320835D01*
Y0188528D02*
Y0199528D01*
X0321528D02*
X0327528D01*
Y0188528D02*
Y0199528D01*
X0321528Y0188528D02*
X0327528D01*
X0321528D02*
Y0199528D01*
X0328221Y0188528D02*
X0334221D01*
X0328221D02*
Y0199528D01*
X0334221D01*
Y0188528D02*
Y0199528D01*
X0282795Y0110170D02*
X0280959D01*
X0299528D02*
X0297691D01*
X0298609Y0109251D02*
Y0111088D01*
X0260945Y0110170D02*
X0259108D01*
X0277874D02*
X0276037D01*
X0276956Y0109251D02*
Y0111088D01*
D66*
X0320098Y0115779D02*
Y0116567D01*
D67*
X0130039Y0201114D02*
Y0203869D01*
X0131417D01*
X0131876Y0203410D01*
Y0202492D01*
X0131417Y0202032D01*
X0130039D01*
X0134631Y0203869D02*
X0133713Y0203410D01*
X0132794Y0202492D01*
Y0201573D01*
X0133254Y0201114D01*
X0134172D01*
X0134631Y0201573D01*
Y0202032D01*
X0134172Y0202492D01*
X0132794D01*
X0108386Y0183102D02*
Y0185857D01*
X0109304Y0184939D01*
X0110222Y0185857D01*
Y0183102D01*
X0111141D02*
X0112059D01*
X0111600D01*
Y0185857D01*
X0111141Y0185398D01*
X0200118Y0202294D02*
X0201955Y0199539D01*
Y0202294D02*
X0200118Y0199539D01*
X0202873D02*
X0203791D01*
X0203332D01*
Y0202294D01*
X0202873Y0201835D01*
X0180433Y0188909D02*
Y0186613D01*
X0180892Y0186153D01*
X0181811D01*
X0182270Y0186613D01*
Y0188909D01*
X0185025D02*
X0183188D01*
Y0187531D01*
X0184106Y0187990D01*
X0184566D01*
X0185025Y0187531D01*
Y0186613D01*
X0184566Y0186153D01*
X0183647D01*
X0183188Y0186613D01*
X0231024Y0191665D02*
Y0189369D01*
X0231483Y0188909D01*
X0232401D01*
X0232860Y0189369D01*
Y0191665D01*
X0233779Y0191205D02*
X0234238Y0191665D01*
X0235156D01*
X0235615Y0191205D01*
Y0190746D01*
X0235156Y0190287D01*
X0234697D01*
X0235156D01*
X0235615Y0189828D01*
Y0189369D01*
X0235156Y0188909D01*
X0234238D01*
X0233779Y0189369D01*
X0261339Y0189696D02*
Y0187400D01*
X0261798Y0186941D01*
X0262716D01*
X0263175Y0187400D01*
Y0189696D01*
X0265930Y0186941D02*
X0264094D01*
X0265930Y0188778D01*
Y0189237D01*
X0265471Y0189696D01*
X0264553D01*
X0264094Y0189237D01*
X0307402Y0169027D02*
Y0166731D01*
X0307861Y0166272D01*
X0308779D01*
X0309238Y0166731D01*
Y0169027D01*
X0310157Y0166272D02*
X0311075D01*
X0310616D01*
Y0169027D01*
X0310157Y0168568D01*
X0195394Y0144814D02*
X0197230D01*
X0196312D01*
Y0142059D01*
X0199985Y0144814D02*
X0199067Y0144355D01*
X0198149Y0143437D01*
Y0142518D01*
X0198608Y0142059D01*
X0199526D01*
X0199985Y0142518D01*
Y0142977D01*
X0199526Y0143437D01*
X0198149D01*
X0233189Y0125523D02*
X0235026D01*
X0234107D01*
Y0122768D01*
X0237781D02*
X0235944D01*
X0237781Y0124604D01*
Y0125064D01*
X0237321Y0125523D01*
X0236403D01*
X0235944Y0125064D01*
X0301299Y0152491D02*
X0303136D01*
X0302218D01*
Y0149736D01*
X0304054D02*
X0304973D01*
X0304513D01*
Y0152491D01*
X0304054Y0152032D01*
X0212913Y0159185D02*
Y0161940D01*
X0214291D01*
X0214750Y0161481D01*
Y0160563D01*
X0214291Y0160103D01*
X0212913D01*
X0213832D02*
X0214750Y0159185D01*
X0215668Y0161481D02*
X0216128Y0161940D01*
X0217046D01*
X0217505Y0161481D01*
Y0161022D01*
X0217046Y0160563D01*
X0216587D01*
X0217046D01*
X0217505Y0160103D01*
Y0159644D01*
X0217046Y0159185D01*
X0216128D01*
X0215668Y0159644D01*
X0219801Y0159185D02*
Y0161940D01*
X0218423Y0160563D01*
X0220260D01*
X0166063Y0137138D02*
Y0139893D01*
X0167440D01*
X0167900Y0139434D01*
Y0138515D01*
X0167440Y0138056D01*
X0166063D01*
X0166981D02*
X0167900Y0137138D01*
X0168818Y0139434D02*
X0169277Y0139893D01*
X0170195D01*
X0170655Y0139434D01*
Y0138974D01*
X0170195Y0138515D01*
X0169736D01*
X0170195D01*
X0170655Y0138056D01*
Y0137597D01*
X0170195Y0137138D01*
X0169277D01*
X0168818Y0137597D01*
X0171573Y0139434D02*
X0172032Y0139893D01*
X0172950D01*
X0173410Y0139434D01*
Y0138974D01*
X0172950Y0138515D01*
X0172491D01*
X0172950D01*
X0173410Y0138056D01*
Y0137597D01*
X0172950Y0137138D01*
X0172032D01*
X0171573Y0137597D01*
X0166063Y0127492D02*
Y0130247D01*
X0167440D01*
X0167900Y0129788D01*
Y0128870D01*
X0167440Y0128410D01*
X0166063D01*
X0166981D02*
X0167900Y0127492D01*
X0168818Y0129788D02*
X0169277Y0130247D01*
X0170195D01*
X0170655Y0129788D01*
Y0129329D01*
X0170195Y0128870D01*
X0169736D01*
X0170195D01*
X0170655Y0128410D01*
Y0127951D01*
X0170195Y0127492D01*
X0169277D01*
X0168818Y0127951D01*
X0173410Y0127492D02*
X0171573D01*
X0173410Y0129329D01*
Y0129788D01*
X0172950Y0130247D01*
X0172032D01*
X0171573Y0129788D01*
X0198937Y0173358D02*
Y0176113D01*
X0200314D01*
X0200774Y0175654D01*
Y0174736D01*
X0200314Y0174277D01*
X0198937D01*
X0199855D02*
X0200774Y0173358D01*
X0201692Y0175654D02*
X0202151Y0176113D01*
X0203070D01*
X0203529Y0175654D01*
Y0175195D01*
X0203070Y0174736D01*
X0202610D01*
X0203070D01*
X0203529Y0174277D01*
Y0173817D01*
X0203070Y0173358D01*
X0202151D01*
X0201692Y0173817D01*
X0204447Y0173358D02*
X0205365D01*
X0204906D01*
Y0176113D01*
X0204447Y0175654D01*
X0184173Y0148358D02*
Y0151113D01*
X0185551D01*
X0186010Y0150654D01*
Y0149736D01*
X0185551Y0149277D01*
X0184173D01*
X0185092D02*
X0186010Y0148358D01*
X0186928Y0150654D02*
X0187387Y0151113D01*
X0188306D01*
X0188765Y0150654D01*
Y0150195D01*
X0188306Y0149736D01*
X0187847D01*
X0188306D01*
X0188765Y0149277D01*
Y0148817D01*
X0188306Y0148358D01*
X0187387D01*
X0186928Y0148817D01*
X0189683Y0150654D02*
X0190143Y0151113D01*
X0191061D01*
X0191520Y0150654D01*
Y0148817D01*
X0191061Y0148358D01*
X0190143D01*
X0189683Y0148817D01*
Y0150654D01*
X0152087Y0133398D02*
Y0136153D01*
X0153464D01*
X0153923Y0135694D01*
Y0134775D01*
X0153464Y0134316D01*
X0152087D01*
X0153005D02*
X0153923Y0133398D01*
X0156678D02*
X0154842D01*
X0156678Y0135234D01*
Y0135694D01*
X0156219Y0136153D01*
X0155301D01*
X0154842Y0135694D01*
X0157597Y0133857D02*
X0158056Y0133398D01*
X0158974D01*
X0159433Y0133857D01*
Y0135694D01*
X0158974Y0136153D01*
X0158056D01*
X0157597Y0135694D01*
Y0135234D01*
X0158056Y0134775D01*
X0159433D01*
X0138633Y0137491D02*
Y0140246D01*
X0140011D01*
X0140470Y0139786D01*
Y0138868D01*
X0140011Y0138409D01*
X0138633D01*
X0139551D02*
X0140470Y0137491D01*
X0143225D02*
X0141388D01*
X0143225Y0139327D01*
Y0139786D01*
X0142766Y0140246D01*
X0141847D01*
X0141388Y0139786D01*
X0144143D02*
X0144602Y0140246D01*
X0145521D01*
X0145980Y0139786D01*
Y0139327D01*
X0145521Y0138868D01*
X0145980Y0138409D01*
Y0137950D01*
X0145521Y0137491D01*
X0144602D01*
X0144143Y0137950D01*
Y0138409D01*
X0144602Y0138868D01*
X0144143Y0139327D01*
Y0139786D01*
X0144602Y0138868D02*
X0145521D01*
X0140866Y0185760D02*
Y0188515D01*
X0142244D01*
X0142703Y0188056D01*
Y0187137D01*
X0142244Y0186678D01*
X0140866D01*
X0141785D02*
X0142703Y0185760D01*
X0145458D02*
X0143621D01*
X0145458Y0187596D01*
Y0188056D01*
X0144999Y0188515D01*
X0144080D01*
X0143621Y0188056D01*
X0146376Y0188515D02*
X0148213D01*
Y0188056D01*
X0146376Y0186219D01*
Y0185760D01*
X0134764Y0189697D02*
X0132009D01*
Y0191074D01*
X0132468Y0191534D01*
X0133386D01*
X0133845Y0191074D01*
Y0189697D01*
Y0190615D02*
X0134764Y0191534D01*
Y0194289D02*
Y0192452D01*
X0132927Y0194289D01*
X0132468D01*
X0132009Y0193829D01*
Y0192911D01*
X0132468Y0192452D01*
X0132009Y0197044D02*
X0132468Y0196125D01*
X0133386Y0195207D01*
X0134305D01*
X0134764Y0195666D01*
Y0196584D01*
X0134305Y0197044D01*
X0133845D01*
X0133386Y0196584D01*
Y0195207D01*
X0186142Y0173555D02*
Y0176310D01*
X0187519D01*
X0187978Y0175851D01*
Y0174933D01*
X0187519Y0174474D01*
X0186142D01*
X0187060D02*
X0187978Y0173555D01*
X0190733D02*
X0188897D01*
X0190733Y0175392D01*
Y0175851D01*
X0190274Y0176310D01*
X0189356D01*
X0188897Y0175851D01*
X0193489Y0176310D02*
X0191652D01*
Y0174933D01*
X0192570Y0175392D01*
X0193029D01*
X0193489Y0174933D01*
Y0174014D01*
X0193029Y0173555D01*
X0192111D01*
X0191652Y0174014D01*
X0184961Y0159579D02*
X0182206D01*
Y0160956D01*
X0182665Y0161415D01*
X0183583D01*
X0184042Y0160956D01*
Y0159579D01*
Y0160497D02*
X0184961Y0161415D01*
Y0164170D02*
Y0162334D01*
X0183124Y0164170D01*
X0182665D01*
X0182206Y0163711D01*
Y0162793D01*
X0182665Y0162334D01*
X0184961Y0166466D02*
X0182206D01*
X0183583Y0165089D01*
Y0166926D01*
X0171181Y0197768D02*
Y0200523D01*
X0172559D01*
X0173018Y0200064D01*
Y0199145D01*
X0172559Y0198686D01*
X0171181D01*
X0172099D02*
X0173018Y0197768D01*
X0175773D02*
X0173936D01*
X0175773Y0199604D01*
Y0200064D01*
X0175314Y0200523D01*
X0174395D01*
X0173936Y0200064D01*
X0176691D02*
X0177150Y0200523D01*
X0178069D01*
X0178528Y0200064D01*
Y0199604D01*
X0178069Y0199145D01*
X0177610D01*
X0178069D01*
X0178528Y0198686D01*
Y0198227D01*
X0178069Y0197768D01*
X0177150D01*
X0176691Y0198227D01*
X0156811Y0185760D02*
Y0188515D01*
X0158188D01*
X0158648Y0188056D01*
Y0187137D01*
X0158188Y0186678D01*
X0156811D01*
X0157729D02*
X0158648Y0185760D01*
X0161403D02*
X0159566D01*
X0161403Y0187596D01*
Y0188056D01*
X0160944Y0188515D01*
X0160025D01*
X0159566Y0188056D01*
X0164158Y0185760D02*
X0162321D01*
X0164158Y0187596D01*
Y0188056D01*
X0163699Y0188515D01*
X0162780D01*
X0162321Y0188056D01*
X0149331Y0185760D02*
Y0188515D01*
X0150708D01*
X0151167Y0188056D01*
Y0187137D01*
X0150708Y0186678D01*
X0149331D01*
X0150249D02*
X0151167Y0185760D01*
X0153922D02*
X0152086D01*
X0153922Y0187596D01*
Y0188056D01*
X0153463Y0188515D01*
X0152545D01*
X0152086Y0188056D01*
X0154841Y0185760D02*
X0155759D01*
X0155300D01*
Y0188515D01*
X0154841Y0188056D01*
X0219016Y0152689D02*
Y0155444D01*
X0220393D01*
X0220852Y0154985D01*
Y0154067D01*
X0220393Y0153607D01*
X0219016D01*
X0219934D02*
X0220852Y0152689D01*
X0223607D02*
X0221771D01*
X0223607Y0154526D01*
Y0154985D01*
X0223148Y0155444D01*
X0222230D01*
X0221771Y0154985D01*
X0224526D02*
X0224985Y0155444D01*
X0225903D01*
X0226362Y0154985D01*
Y0153148D01*
X0225903Y0152689D01*
X0224985D01*
X0224526Y0153148D01*
Y0154985D01*
X0211929Y0147965D02*
Y0150720D01*
X0213307D01*
X0213766Y0150260D01*
Y0149342D01*
X0213307Y0148883D01*
X0211929D01*
X0212847D02*
X0213766Y0147965D01*
X0214684D02*
X0215602D01*
X0215143D01*
Y0150720D01*
X0214684Y0150260D01*
X0216980Y0148424D02*
X0217439Y0147965D01*
X0218357D01*
X0218817Y0148424D01*
Y0150260D01*
X0218357Y0150720D01*
X0217439D01*
X0216980Y0150260D01*
Y0149801D01*
X0217439Y0149342D01*
X0218817D01*
X0230827Y0147177D02*
Y0149932D01*
X0232204D01*
X0232663Y0149473D01*
Y0148555D01*
X0232204Y0148096D01*
X0230827D01*
X0231745D02*
X0232663Y0147177D01*
X0233582D02*
X0234500D01*
X0234041D01*
Y0149932D01*
X0233582Y0149473D01*
X0235878D02*
X0236337Y0149932D01*
X0237255D01*
X0237714Y0149473D01*
Y0149014D01*
X0237255Y0148555D01*
X0237714Y0148096D01*
Y0147636D01*
X0237255Y0147177D01*
X0236337D01*
X0235878Y0147636D01*
Y0148096D01*
X0236337Y0148555D01*
X0235878Y0149014D01*
Y0149473D01*
X0236337Y0148555D02*
X0237255D01*
X0222756Y0128279D02*
X0220001D01*
Y0129657D01*
X0220460Y0130116D01*
X0221378D01*
X0221838Y0129657D01*
Y0128279D01*
Y0129198D02*
X0222756Y0130116D01*
Y0131035D02*
Y0131953D01*
Y0131494D01*
X0220001D01*
X0220460Y0131035D01*
X0220001Y0133330D02*
Y0135167D01*
X0220460D01*
X0222297Y0133330D01*
X0222756D01*
X0205039Y0176508D02*
Y0179263D01*
X0206417D01*
X0206876Y0178804D01*
Y0177885D01*
X0206417Y0177426D01*
X0205039D01*
X0205958D02*
X0206876Y0176508D01*
X0207794D02*
X0208713D01*
X0208254D01*
Y0179263D01*
X0207794Y0178804D01*
X0211927Y0179263D02*
X0211009Y0178804D01*
X0210090Y0177885D01*
Y0176967D01*
X0210549Y0176508D01*
X0211468D01*
X0211927Y0176967D01*
Y0177426D01*
X0211468Y0177885D01*
X0210090D01*
X0327087Y0184776D02*
Y0187531D01*
X0328464D01*
X0328923Y0187071D01*
Y0186153D01*
X0328464Y0185694D01*
X0327087D01*
X0328005D02*
X0328923Y0184776D01*
X0329842D02*
X0330760D01*
X0330301D01*
Y0187531D01*
X0329842Y0187071D01*
X0333515Y0184776D02*
Y0187531D01*
X0332137Y0186153D01*
X0333974D01*
X0307992Y0184776D02*
Y0187531D01*
X0309370D01*
X0309829Y0187071D01*
Y0186153D01*
X0309370Y0185694D01*
X0307992D01*
X0308910D02*
X0309829Y0184776D01*
X0310747D02*
X0311666D01*
X0311206D01*
Y0187531D01*
X0310747Y0187071D01*
X0313043D02*
X0313502Y0187531D01*
X0314421D01*
X0314880Y0187071D01*
Y0186612D01*
X0314421Y0186153D01*
X0313961D01*
X0314421D01*
X0314880Y0185694D01*
Y0185235D01*
X0314421Y0184776D01*
X0313502D01*
X0313043Y0185235D01*
X0342441Y0147965D02*
Y0150720D01*
X0343818D01*
X0344278Y0150260D01*
Y0149342D01*
X0343818Y0148883D01*
X0342441D01*
X0343359D02*
X0344278Y0147965D01*
X0345196D02*
X0346114D01*
X0345655D01*
Y0150720D01*
X0345196Y0150260D01*
X0349328Y0147965D02*
X0347492D01*
X0349328Y0149801D01*
Y0150260D01*
X0348869Y0150720D01*
X0347951D01*
X0347492Y0150260D01*
X0333583Y0176508D02*
X0330828D01*
Y0177885D01*
X0331287Y0178345D01*
X0332205D01*
X0332664Y0177885D01*
Y0176508D01*
Y0177426D02*
X0333583Y0178345D01*
Y0179263D02*
Y0180181D01*
Y0179722D01*
X0330828D01*
X0331287Y0179263D01*
X0333583Y0181559D02*
Y0182477D01*
Y0182018D01*
X0330828D01*
X0331287Y0181559D01*
X0276299Y0162925D02*
X0273544D01*
Y0164303D01*
X0274003Y0164762D01*
X0274922D01*
X0275381Y0164303D01*
Y0162925D01*
Y0163844D02*
X0276299Y0164762D01*
Y0165680D02*
Y0166599D01*
Y0166139D01*
X0273544D01*
X0274003Y0165680D01*
Y0167976D02*
X0273544Y0168435D01*
Y0169354D01*
X0274003Y0169813D01*
X0275840D01*
X0276299Y0169354D01*
Y0168435D01*
X0275840Y0167976D01*
X0274003D01*
X0276299Y0174146D02*
X0273544D01*
Y0175523D01*
X0274003Y0175982D01*
X0274922D01*
X0275381Y0175523D01*
Y0174146D01*
Y0175064D02*
X0276299Y0175982D01*
X0275840Y0176901D02*
X0276299Y0177360D01*
Y0178278D01*
X0275840Y0178737D01*
X0274003D01*
X0273544Y0178278D01*
Y0177360D01*
X0274003Y0176901D01*
X0274463D01*
X0274922Y0177360D01*
Y0178737D01*
X0276299Y0192453D02*
X0273544D01*
Y0193830D01*
X0274003Y0194289D01*
X0274922D01*
X0275381Y0193830D01*
Y0192453D01*
Y0193371D02*
X0276299Y0194289D01*
X0274003Y0195208D02*
X0273544Y0195667D01*
Y0196585D01*
X0274003Y0197045D01*
X0274463D01*
X0274922Y0196585D01*
X0275381Y0197045D01*
X0275840D01*
X0276299Y0196585D01*
Y0195667D01*
X0275840Y0195208D01*
X0275381D01*
X0274922Y0195667D01*
X0274463Y0195208D01*
X0274003D01*
X0274922Y0195667D02*
Y0196585D01*
X0321575Y0184776D02*
Y0187531D01*
X0322952D01*
X0323411Y0187071D01*
Y0186153D01*
X0322952Y0185694D01*
X0321575D01*
X0322493D02*
X0323411Y0184776D01*
X0324330Y0187531D02*
X0326167D01*
Y0187071D01*
X0324330Y0185235D01*
Y0184776D01*
X0341457Y0198358D02*
Y0201113D01*
X0342834D01*
X0343293Y0200654D01*
Y0199736D01*
X0342834Y0199277D01*
X0341457D01*
X0342375D02*
X0343293Y0198358D01*
X0346048Y0201113D02*
X0345130Y0200654D01*
X0344212Y0199736D01*
Y0198817D01*
X0344671Y0198358D01*
X0345589D01*
X0346048Y0198817D01*
Y0199277D01*
X0345589Y0199736D01*
X0344212D01*
X0273937Y0142256D02*
Y0145011D01*
X0275314D01*
X0275774Y0144552D01*
Y0143633D01*
X0275314Y0143174D01*
X0273937D01*
X0274855D02*
X0275774Y0142256D01*
X0278529Y0145011D02*
X0276692D01*
Y0143633D01*
X0277610Y0144093D01*
X0278069D01*
X0278529Y0143633D01*
Y0142715D01*
X0278069Y0142256D01*
X0277151D01*
X0276692Y0142715D01*
X0276299Y0187335D02*
X0273544D01*
Y0188712D01*
X0274003Y0189171D01*
X0274922D01*
X0275381Y0188712D01*
Y0187335D01*
Y0188253D02*
X0276299Y0189171D01*
Y0191467D02*
X0273544D01*
X0274922Y0190090D01*
Y0191926D01*
X0315669Y0184776D02*
Y0187531D01*
X0317047D01*
X0317506Y0187071D01*
Y0186153D01*
X0317047Y0185694D01*
X0315669D01*
X0316588D02*
X0317506Y0184776D01*
X0318424Y0187071D02*
X0318883Y0187531D01*
X0319802D01*
X0320261Y0187071D01*
Y0186612D01*
X0319802Y0186153D01*
X0319343D01*
X0319802D01*
X0320261Y0185694D01*
Y0185235D01*
X0319802Y0184776D01*
X0318883D01*
X0318424Y0185235D01*
X0336142Y0169618D02*
X0333387D01*
Y0170996D01*
X0333846Y0171455D01*
X0334764D01*
X0335223Y0170996D01*
Y0169618D01*
Y0170536D02*
X0336142Y0171455D01*
Y0174210D02*
Y0172373D01*
X0334305Y0174210D01*
X0333846D01*
X0333387Y0173751D01*
Y0172832D01*
X0333846Y0172373D01*
X0336142Y0163122D02*
X0333387D01*
Y0164500D01*
X0333846Y0164959D01*
X0334764D01*
X0335223Y0164500D01*
Y0163122D01*
Y0164040D02*
X0336142Y0164959D01*
Y0165877D02*
Y0166795D01*
Y0166336D01*
X0333387D01*
X0333846Y0165877D01*
X0357795Y0132807D02*
Y0135562D01*
X0359173D01*
X0359632Y0135103D01*
Y0134185D01*
X0359173Y0133725D01*
X0357795D01*
X0360550Y0135103D02*
X0361010Y0135562D01*
X0361928D01*
X0362387Y0135103D01*
Y0134644D01*
X0361928Y0134185D01*
X0362387Y0133725D01*
Y0133266D01*
X0361928Y0132807D01*
X0361010D01*
X0360550Y0133266D01*
Y0133725D01*
X0361010Y0134185D01*
X0360550Y0134644D01*
Y0135103D01*
X0361010Y0134185D02*
X0361928D01*
X0156757Y0123063D02*
Y0125818D01*
X0158134D01*
X0158593Y0125359D01*
Y0124441D01*
X0158134Y0123981D01*
X0156757D01*
X0159512Y0125818D02*
X0161348D01*
Y0125359D01*
X0159512Y0123522D01*
Y0123063D01*
X0176890Y0123161D02*
Y0125916D01*
X0178267D01*
X0178726Y0125457D01*
Y0124539D01*
X0178267Y0124080D01*
X0176890D01*
X0181482Y0125916D02*
X0179645D01*
Y0124539D01*
X0180563Y0124998D01*
X0181022D01*
X0181482Y0124539D01*
Y0123621D01*
X0181022Y0123161D01*
X0180104D01*
X0179645Y0123621D01*
X0283780Y0123161D02*
Y0125916D01*
X0285157D01*
X0285616Y0125457D01*
Y0124539D01*
X0285157Y0124080D01*
X0283780D01*
X0286535Y0125457D02*
X0286994Y0125916D01*
X0287912D01*
X0288371Y0125457D01*
Y0124998D01*
X0287912Y0124539D01*
X0287453D01*
X0287912D01*
X0288371Y0124080D01*
Y0123621D01*
X0287912Y0123161D01*
X0286994D01*
X0286535Y0123621D01*
X0279055Y0123358D02*
Y0126113D01*
X0280433D01*
X0280892Y0125654D01*
Y0124736D01*
X0280433Y0124277D01*
X0279055D01*
X0281810Y0123358D02*
X0282729D01*
X0282269D01*
Y0126113D01*
X0281810Y0125654D01*
X0255237Y0178476D02*
X0257992D01*
Y0180313D01*
Y0183068D02*
Y0181231D01*
X0256155Y0183068D01*
X0255696D01*
X0255237Y0182609D01*
Y0181691D01*
X0255696Y0181231D01*
X0301496Y0163318D02*
Y0160563D01*
X0303333D01*
X0304251D02*
X0305169D01*
X0304710D01*
Y0163318D01*
X0304251Y0162859D01*
X0359435Y0183397D02*
X0358517D01*
X0358976D01*
Y0181101D01*
X0358517Y0180642D01*
X0358058D01*
X0357598Y0181101D01*
X0362190Y0180642D02*
X0360353D01*
X0362190Y0182478D01*
Y0182938D01*
X0361731Y0183397D01*
X0360813D01*
X0360353Y0182938D01*
X0249494Y0126999D02*
X0247657D01*
Y0125622D01*
X0248576D01*
X0247657D01*
Y0124244D01*
X0250413D02*
X0251331D01*
X0250872D01*
Y0126999D01*
X0250413Y0126540D01*
X0152087Y0111153D02*
X0154842D01*
Y0112531D01*
X0154383Y0112990D01*
X0152547D01*
X0152087Y0112531D01*
Y0111153D01*
X0152547Y0113909D02*
X0152087Y0114368D01*
Y0115286D01*
X0152547Y0115745D01*
X0153006D01*
X0153465Y0115286D01*
X0153924Y0115745D01*
X0154383D01*
X0154842Y0115286D01*
Y0114368D01*
X0154383Y0113909D01*
X0153924D01*
X0153465Y0114368D01*
X0153006Y0113909D01*
X0152547D01*
X0153465Y0114368D02*
Y0115286D01*
X0133977Y0111350D02*
X0136732D01*
Y0112728D01*
X0136273Y0113187D01*
X0134436D01*
X0133977Y0112728D01*
Y0111350D01*
Y0114105D02*
Y0115942D01*
X0134436D01*
X0136273Y0114105D01*
X0136732D01*
X0285749Y0149343D02*
X0288504D01*
Y0150720D01*
X0288045Y0151179D01*
X0286208D01*
X0285749Y0150720D01*
Y0149343D01*
Y0153934D02*
X0286208Y0153016D01*
X0287126Y0152097D01*
X0288045D01*
X0288504Y0152557D01*
Y0153475D01*
X0288045Y0153934D01*
X0287586D01*
X0287126Y0153475D01*
Y0152097D01*
X0331614Y0146389D02*
Y0143634D01*
X0332992D01*
X0333451Y0144093D01*
Y0145930D01*
X0332992Y0146389D01*
X0331614D01*
X0336206D02*
X0334369D01*
Y0145011D01*
X0335287Y0145470D01*
X0335747D01*
X0336206Y0145011D01*
Y0144093D01*
X0335747Y0143634D01*
X0334828D01*
X0334369Y0144093D01*
X0300709Y0147570D02*
Y0144815D01*
X0302086D01*
X0302545Y0145274D01*
Y0147111D01*
X0302086Y0147570D01*
X0300709D01*
X0304841Y0144815D02*
Y0147570D01*
X0303464Y0146193D01*
X0305300D01*
X0290276Y0150326D02*
Y0147571D01*
X0291653D01*
X0292112Y0148030D01*
Y0149867D01*
X0291653Y0150326D01*
X0290276D01*
X0293031Y0149867D02*
X0293490Y0150326D01*
X0294408D01*
X0294867Y0149867D01*
Y0149407D01*
X0294408Y0148948D01*
X0293949D01*
X0294408D01*
X0294867Y0148489D01*
Y0148030D01*
X0294408Y0147571D01*
X0293490D01*
X0293031Y0148030D01*
X0331221Y0155839D02*
X0333976D01*
Y0157216D01*
X0333517Y0157675D01*
X0331680D01*
X0331221Y0157216D01*
Y0155839D01*
X0333976Y0160430D02*
Y0158594D01*
X0332140Y0160430D01*
X0331680D01*
X0331221Y0159971D01*
Y0159053D01*
X0331680Y0158594D01*
X0242047Y0126999D02*
Y0124244D01*
X0243425D01*
X0243884Y0124703D01*
Y0126540D01*
X0243425Y0126999D01*
X0242047D01*
X0244802Y0124244D02*
X0245721D01*
X0245261D01*
Y0126999D01*
X0244802Y0126540D01*
X0182664Y0196323D02*
X0182204Y0196783D01*
X0181286D01*
X0180827Y0196323D01*
Y0194487D01*
X0181286Y0194028D01*
X0182204D01*
X0182664Y0194487D01*
X0184959Y0196783D02*
X0184041D01*
X0183582Y0196323D01*
Y0194487D01*
X0184041Y0194028D01*
X0184959D01*
X0185418Y0194487D01*
Y0196323D01*
X0184959Y0196783D01*
X0186337Y0194028D02*
Y0196783D01*
X0188173Y0194028D01*
Y0196783D01*
X0190469Y0194028D02*
Y0196783D01*
X0189092Y0195405D01*
X0190928D01*
X0344475Y0180378D02*
X0344015Y0180838D01*
X0343097D01*
X0342638Y0180378D01*
Y0178542D01*
X0343097Y0178083D01*
X0344015D01*
X0344475Y0178542D01*
X0346770Y0180838D02*
X0345852D01*
X0345393Y0180378D01*
Y0178542D01*
X0345852Y0178083D01*
X0346770D01*
X0347230Y0178542D01*
Y0180378D01*
X0346770Y0180838D01*
X0348148Y0178083D02*
Y0180838D01*
X0349985Y0178083D01*
Y0180838D01*
X0352740Y0178083D02*
X0350903D01*
X0352740Y0179919D01*
Y0180378D01*
X0352280Y0180838D01*
X0351362D01*
X0350903Y0180378D01*
X0316915Y0131166D02*
X0316456Y0131625D01*
X0315538D01*
X0315079Y0131166D01*
Y0129329D01*
X0315538Y0128870D01*
X0316456D01*
X0316915Y0129329D01*
X0319211Y0131625D02*
X0318293D01*
X0317834Y0131166D01*
Y0129329D01*
X0318293Y0128870D01*
X0319211D01*
X0319670Y0129329D01*
Y0131166D01*
X0319211Y0131625D01*
X0320589Y0128870D02*
Y0131625D01*
X0322426Y0128870D01*
Y0131625D01*
X0323344Y0128870D02*
X0324262D01*
X0323803D01*
Y0131625D01*
X0323344Y0131166D01*
X0214750Y0194158D02*
X0214291Y0194617D01*
X0213373D01*
X0212913Y0194158D01*
Y0192321D01*
X0213373Y0191862D01*
X0214291D01*
X0214750Y0192321D01*
X0215668Y0191862D02*
X0216587D01*
X0216128D01*
Y0194617D01*
X0215668Y0194158D01*
X0219342Y0191862D02*
Y0194617D01*
X0217964Y0193240D01*
X0219801D01*
X0230104Y0156953D02*
X0229645Y0157413D01*
X0228727D01*
X0228268Y0156953D01*
Y0155117D01*
X0228727Y0154657D01*
X0229645D01*
X0230104Y0155117D01*
X0231023Y0154657D02*
X0231941D01*
X0231482D01*
Y0157413D01*
X0231023Y0156953D01*
X0233319D02*
X0233778Y0157413D01*
X0234696D01*
X0235155Y0156953D01*
Y0156494D01*
X0234696Y0156035D01*
X0234237D01*
X0234696D01*
X0235155Y0155576D01*
Y0155117D01*
X0234696Y0154657D01*
X0233778D01*
X0233319Y0155117D01*
X0273807Y0181494D02*
X0273347Y0181035D01*
Y0180117D01*
X0273807Y0179657D01*
X0275643D01*
X0276102Y0180117D01*
Y0181035D01*
X0275643Y0181494D01*
X0276102Y0182413D02*
Y0183331D01*
Y0182872D01*
X0273347D01*
X0273807Y0182413D01*
X0276102Y0186545D02*
Y0184708D01*
X0274266Y0186545D01*
X0273807D01*
X0273347Y0186086D01*
Y0185168D01*
X0273807Y0184708D01*
X0236996Y0196455D02*
X0236536Y0195996D01*
Y0195077D01*
X0236996Y0194618D01*
X0238832D01*
X0239291Y0195077D01*
Y0195996D01*
X0238832Y0196455D01*
X0239291Y0197373D02*
Y0198292D01*
Y0197832D01*
X0236536D01*
X0236996Y0197373D01*
X0239291Y0199669D02*
Y0200587D01*
Y0200128D01*
X0236536D01*
X0236996Y0199669D01*
X0233059Y0196258D02*
X0232599Y0195799D01*
Y0194880D01*
X0233059Y0194421D01*
X0234895D01*
X0235354Y0194880D01*
Y0195799D01*
X0234895Y0196258D01*
X0235354Y0197176D02*
Y0198095D01*
Y0197635D01*
X0232599D01*
X0233059Y0197176D01*
Y0199472D02*
X0232599Y0199931D01*
Y0200850D01*
X0233059Y0201309D01*
X0234895D01*
X0235354Y0200850D01*
Y0199931D01*
X0234895Y0199472D01*
X0233059D01*
X0269671Y0191599D02*
X0269212Y0192058D01*
X0268294D01*
X0267835Y0191599D01*
Y0189762D01*
X0268294Y0189303D01*
X0269212D01*
X0269671Y0189762D01*
X0270590D02*
X0271049Y0189303D01*
X0271967D01*
X0272426Y0189762D01*
Y0191599D01*
X0271967Y0192058D01*
X0271049D01*
X0270590Y0191599D01*
Y0191140D01*
X0271049Y0190681D01*
X0272426D01*
X0257270Y0171127D02*
X0256811Y0171586D01*
X0255892D01*
X0255433Y0171127D01*
Y0169290D01*
X0255892Y0168831D01*
X0256811D01*
X0257270Y0169290D01*
X0258188Y0171127D02*
X0258647Y0171586D01*
X0259566D01*
X0260025Y0171127D01*
Y0170667D01*
X0259566Y0170208D01*
X0260025Y0169749D01*
Y0169290D01*
X0259566Y0168831D01*
X0258647D01*
X0258188Y0169290D01*
Y0169749D01*
X0258647Y0170208D01*
X0258188Y0170667D01*
Y0171127D01*
X0258647Y0170208D02*
X0259566D01*
X0252152Y0154591D02*
X0251693Y0155050D01*
X0250774D01*
X0250315Y0154591D01*
Y0152754D01*
X0250774Y0152295D01*
X0251693D01*
X0252152Y0152754D01*
X0253070Y0155050D02*
X0254907D01*
Y0154591D01*
X0253070Y0152754D01*
Y0152295D01*
X0252940Y0144486D02*
X0252481Y0144027D01*
Y0143109D01*
X0252940Y0142650D01*
X0254777D01*
X0255236Y0143109D01*
Y0144027D01*
X0254777Y0144486D01*
X0252481Y0147241D02*
X0252940Y0146323D01*
X0253859Y0145405D01*
X0254777D01*
X0255236Y0145864D01*
Y0146782D01*
X0254777Y0147241D01*
X0254318D01*
X0253859Y0146782D01*
Y0145405D01*
X0308451Y0183725D02*
X0307992Y0184184D01*
X0307073D01*
X0306614Y0183725D01*
Y0181888D01*
X0307073Y0181429D01*
X0307992D01*
X0308451Y0181888D01*
X0311206Y0184184D02*
X0309369D01*
Y0182807D01*
X0310287Y0183266D01*
X0310747D01*
X0311206Y0182807D01*
Y0181888D01*
X0310747Y0181429D01*
X0309828D01*
X0309369Y0181888D01*
X0290734Y0185300D02*
X0290275Y0185759D01*
X0289357D01*
X0288898Y0185300D01*
Y0183463D01*
X0289357Y0183004D01*
X0290275D01*
X0290734Y0183463D01*
X0293030Y0183004D02*
Y0185759D01*
X0291653Y0184381D01*
X0293489D01*
X0310419Y0150851D02*
X0309960Y0151310D01*
X0309042D01*
X0308583Y0150851D01*
Y0149014D01*
X0309042Y0148555D01*
X0309960D01*
X0310419Y0149014D01*
X0311338Y0150851D02*
X0311797Y0151310D01*
X0312715D01*
X0313174Y0150851D01*
Y0150392D01*
X0312715Y0149933D01*
X0312256D01*
X0312715D01*
X0313174Y0149474D01*
Y0149014D01*
X0312715Y0148555D01*
X0311797D01*
X0311338Y0149014D01*
X0315931Y0147308D02*
X0315472Y0147767D01*
X0314554D01*
X0314094Y0147308D01*
Y0145471D01*
X0314554Y0145012D01*
X0315472D01*
X0315931Y0145471D01*
X0318686Y0145012D02*
X0316849D01*
X0318686Y0146848D01*
Y0147308D01*
X0318227Y0147767D01*
X0317309D01*
X0316849Y0147308D01*
X0325971Y0146914D02*
X0325511Y0147373D01*
X0324593D01*
X0324134Y0146914D01*
Y0145077D01*
X0324593Y0144618D01*
X0325511D01*
X0325971Y0145077D01*
X0326889Y0144618D02*
X0327807D01*
X0327348D01*
Y0147373D01*
X0326889Y0146914D01*
X0209829Y0144617D02*
X0208910D01*
X0209370D01*
Y0142321D01*
X0208910Y0141862D01*
X0208451D01*
X0207992Y0142321D01*
X0210747Y0141862D02*
X0211666D01*
X0211206D01*
Y0144617D01*
X0210747Y0144158D01*
X0274134Y0154854D02*
X0271379D01*
Y0156232D01*
X0271838Y0156691D01*
X0272756D01*
X0273216Y0156232D01*
Y0154854D01*
Y0155773D02*
X0274134Y0156691D01*
Y0157609D02*
Y0158528D01*
Y0158069D01*
X0271379D01*
X0271838Y0157609D01*
X0271379Y0161742D02*
Y0159905D01*
X0272756D01*
X0272297Y0160824D01*
Y0161283D01*
X0272756Y0161742D01*
X0273675D01*
X0274134Y0161283D01*
Y0160364D01*
X0273675Y0159905D01*
X0222008Y0191861D02*
Y0189106D01*
X0223845D01*
X0224763Y0191402D02*
X0225222Y0191861D01*
X0226140D01*
X0226600Y0191402D01*
Y0190943D01*
X0226140Y0190484D01*
X0225681D01*
X0226140D01*
X0226600Y0190025D01*
Y0189566D01*
X0226140Y0189106D01*
X0225222D01*
X0224763Y0189566D01*
X0182767Y0192593D02*
Y0189894D01*
X0181417Y0191243D02*
X0184116D01*
X0241653Y0153251D02*
X0244353D01*
M02*
